<svg xmlns="http://www.w3.org/2000/svg" viewBox="0 0 512 512" fill="none">
  <!-- App icon: dark background with rounded corners -->
  <rect width="512" height="512" rx="80" fill="#0a0a0a"/>

  <g transform="translate(48, 48) scale(0.8125)">
    <!-- Radiating paths -->
    <line x1="256" y1="216" x2="256" y2="88" stroke="#00ff41" stroke-width="10" stroke-linecap="square"/>
    <line x1="291" y1="236" x2="401" y2="136" stroke="#00ff41" stroke-width="10" stroke-linecap="square"/>
    <line x1="291" y1="276" x2="401" y2="376" stroke="#00ff41" stroke-width="10" stroke-linecap="square"/>
    <line x1="256" y1="296" x2="256" y2="424" stroke="#00ff41" stroke-width="10" stroke-linecap="square"/>
    <line x1="221" y1="276" x2="111" y2="376" stroke="#00ff41" stroke-width="10" stroke-linecap="square"/>
    <line x1="221" y1="236" x2="111" y2="136" stroke="#00ff41" stroke-width="10" stroke-linecap="square"/>

    <!-- Central hex -->
    <polygon points="256,204 296,230 296,282 256,308 216,282 216,230" fill="#0a0a0a" stroke="#00ff41" stroke-width="12"/>
    <circle cx="256" cy="256" r="10" fill="#00ff41"/>

    <!-- Outer nodes -->
    <polygon points="256,52 280,76 256,100 232,76" fill="#00ff41"/>
    <rect x="394" y="108" width="44" height="44" fill="#00ff41" rx="3"/>
    <circle cx="420" cy="392" r="24" fill="#00ff41"/>
    <rect x="234" y="416" width="44" height="44" fill="#00ff41" rx="10"/>
    <polygon points="96,376 120,352 144,376 120,400" fill="#00ff41"/>
    <circle cx="96" cy="130" r="24" fill="#00ff41" opacity="0.7"/>

    <!-- Skill particles -->
    <circle cx="256" cy="156" r="5" fill="#00ff41" opacity="0.4"/>
    <circle cx="340" cy="190" r="5" fill="#00ff41" opacity="0.4"/>
    <circle cx="340" cy="322" r="5" fill="#00ff41" opacity="0.4"/>
    <circle cx="256" cy="360" r="5" fill="#00ff41" opacity="0.4"/>
    <circle cx="172" cy="322" r="5" fill="#00ff41" opacity="0.4"/>
    <circle cx="172" cy="190" r="5" fill="#00ff41" opacity="0.4"/>
  </g>
</svg>
