<svg xmlns="http://www.w3.org/2000/svg" viewBox="0 0 512 512" fill="none">
  <rect width="512" height="512" rx="112" fill="#0A0A0A"/>

  <!-- Bluetooth symbol -->
  <path d="M256 100 L256 412 M256 100 L340 184 L172 328 M256 412 L340 328 L172 184" stroke="#22C55E" stroke-width="12" stroke-linecap="round" stroke-linejoin="round" fill="none"/>

  <!-- Signal waves left -->
  <path d="M120 256 A60 60 0 0 1 120 196" stroke="#374151" stroke-width="6" fill="none" stroke-linecap="round"/>
  <path d="M100 256 A80 80 0 0 1 100 176" stroke="#374151" stroke-width="5" fill="none" stroke-linecap="round"/>

  <!-- Signal waves right -->
  <path d="M392 256 A60 60 0 0 0 392 196" stroke="#374151" stroke-width="6" fill="none" stroke-linecap="round"/>
  <path d="M412 256 A80 80 0 0 0 412 176" stroke="#374151" stroke-width="5" fill="none" stroke-linecap="round"/>

  <!-- Health check pulse -->
  <polyline points="80,420 160,420 190,380 220,460 250,400 280,420 432,420" stroke="#22C55E" stroke-width="6" fill="none" stroke-linecap="round" stroke-linejoin="round"/>
</svg>
