<svg xmlns="http://www.w3.org/2000/svg" viewBox="0 0 512 512" fill="none">
  <rect width="512" height="512" rx="112" fill="#0A0A0A"/>

  <!-- Chart area -->
  <rect x="80" y="100" width="352" height="280" rx="16" fill="#111111" stroke="#1A1A1A" stroke-width="4"/>

  <!-- Grid lines -->
  <line x1="120" y1="160" x2="392" y2="160" stroke="#1A1A1A" stroke-width="2"/>
  <line x1="120" y1="220" x2="392" y2="220" stroke="#1A1A1A" stroke-width="2"/>
  <line x1="120" y1="280" x2="392" y2="280" stroke="#1A1A1A" stroke-width="2"/>
  <line x1="120" y1="340" x2="392" y2="340" stroke="#1A1A1A" stroke-width="2"/>

  <!-- Bar chart -->
  <rect x="140" y="240" width="36" height="100" rx="4" fill="#22C55E"/>
  <rect x="196" y="180" width="36" height="160" rx="4" fill="#22C55E" opacity="0.8"/>
  <rect x="252" y="200" width="36" height="140" rx="4" fill="#22C55E" opacity="0.6"/>
  <rect x="308" y="160" width="36" height="180" rx="4" fill="#F59E0B"/>
  <rect x="364" y="260" width="36" height="80" rx="4" fill="#22C55E" opacity="0.4"/>

  <!-- Trend line -->
  <polyline points="158,230 214,170 270,190 326,150 382,250" stroke="#FFFFFF" stroke-width="4" fill="none" stroke-linecap="round" stroke-linejoin="round"/>

  <!-- Eye icon (insights) -->
  <ellipse cx="256" cy="430" rx="48" ry="24" fill="none" stroke="#22C55E" stroke-width="5"/>
  <circle cx="256" cy="430" r="12" fill="#22C55E"/>
</svg>
