<svg xmlns="http://www.w3.org/2000/svg" viewBox="0 0 512 512" width="512" height="512">
  <rect width="512" height="512" rx="96" fill="#FFFFFF"/>
  <g transform="translate(56, 136) scale(3.2)">
    <rect x="16" y="28" width="48" height="36" rx="3" fill="none" stroke="#000000" stroke-width="2.5"/>
    <polygon points="34,38 34,56 46,47" fill="#6B7280"/>
    <rect x="18" y="30" width="4" height="3" rx="0.5" fill="#6B7280" opacity="0.5"/>
    <rect x="26" y="30" width="4" height="3" rx="0.5" fill="#6B7280" opacity="0.5"/>
    <rect x="34" y="30" width="4" height="3" rx="0.5" fill="#6B7280" opacity="0.5"/>
    <rect x="42" y="30" width="4" height="3" rx="0.5" fill="#6B7280" opacity="0.5"/>
    <rect x="18" y="59" width="4" height="3" rx="0.5" fill="#6B7280" opacity="0.5"/>
    <rect x="26" y="59" width="4" height="3" rx="0.5" fill="#6B7280" opacity="0.5"/>
    <rect x="34" y="59" width="4" height="3" rx="0.5" fill="#6B7280" opacity="0.5"/>
    <rect x="42" y="59" width="4" height="3" rx="0.5" fill="#6B7280" opacity="0.5"/>
    <line x1="70" y1="52" x2="82" y2="52" stroke="#22C55E" stroke-width="2.5" stroke-linecap="round"/>
    <polyline points="78,46 84,52 78,58" fill="none" stroke="#22C55E" stroke-width="2.5" stroke-linecap="round" stroke-linejoin="round"/>
    <circle cx="102" cy="52" r="18" fill="none" stroke="#000000" stroke-width="2.5"/>
    <path d="M 102 34 L 108 38 L 102 42" fill="none" stroke="#22C55E" stroke-width="2.5" stroke-linecap="round" stroke-linejoin="round"/>
    <text x="102" y="56" text-anchor="middle" font-family="'Inter', 'Segoe UI', 'Helvetica Neue', Arial, sans-serif" font-size="10" font-weight="700" fill="#22C55E">GIF</text>
  </g>
</svg>