<svg xmlns="http://www.w3.org/2000/svg" viewBox="0 0 512 512" fill="none">
  <rect width="512" height="512" rx="112" fill="#0A0A0A"/>

  <!-- VS Code window frame -->
  <rect x="80" y="100" width="352" height="312" rx="16" fill="#111111" stroke="#1A1A1A" stroke-width="3"/>

  <!-- Title bar -->
  <rect x="80" y="100" width="352" height="36" rx="16" fill="#1A1A1A"/>
  <rect x="80" y="120" width="352" height="16" fill="#1A1A1A"/>
  <circle cx="108" cy="118" r="6" fill="#EF4444"/>
  <circle cx="132" cy="118" r="6" fill="#F59E0B"/>
  <circle cx="156" cy="118" r="6" fill="#22C55E"/>

  <!-- Sidebar -->
  <rect x="80" y="136" width="60" height="276" fill="#0D0D0D"/>

  <!-- Code lines with neon green -->
  <rect x="160" y="160" width="120" height="8" rx="4" fill="#22C55E" opacity="0.9"/>
  <rect x="176" y="184" width="180" height="8" rx="4" fill="#22C55E" opacity="0.6"/>
  <rect x="176" y="208" width="140" height="8" rx="4" fill="#22C55E" opacity="0.4"/>
  <rect x="176" y="232" width="200" height="8" rx="4" fill="#22C55E" opacity="0.7"/>
  <rect x="160" y="256" width="80" height="8" rx="4" fill="#22C55E" opacity="0.5"/>
  <rect x="176" y="280" width="160" height="8" rx="4" fill="#22C55E" opacity="0.3"/>
  <rect x="160" y="304" width="100" height="8" rx="4" fill="#22C55E" opacity="0.8"/>
  <rect x="176" y="328" width="220" height="8" rx="4" fill="#22C55E" opacity="0.5"/>
  <rect x="160" y="352" width="60" height="8" rx="4" fill="#22C55E" opacity="0.6"/>

  <!-- Neon glow effect -->
  <rect x="80" y="100" width="352" height="312" rx="16" fill="none" stroke="#22C55E" stroke-width="2" opacity="0.3"/>

  <!-- Paint drop -->
  <circle cx="256" cy="440" r="20" fill="#22C55E"/>
  <path d="M256 420 L268 440 L244 440 Z" fill="#22C55E"/>
</svg>
