<svg xmlns="http://www.w3.org/2000/svg" viewBox="0 0 256 256" fill="none">
  <!-- App icon with padding -->
  <rect width="256" height="256" rx="48" fill="#0A0A0A"/>

  <!-- Document page -->
  <rect x="56" y="36" width="144" height="184" rx="12" fill="#18181B" stroke="#374151" stroke-width="2"/>

  <!-- Heading line -->
  <rect x="80" y="64" width="72" height="8" rx="4" fill="#22C55E"/>

  <!-- Text lines -->
  <rect x="80" y="88" width="96" height="5" rx="2.5" fill="#6B7280"/>
  <rect x="80" y="104" width="84" height="5" rx="2.5" fill="#6B7280"/>
  <rect x="80" y="120" width="92" height="5" rx="2.5" fill="#6B7280"/>

  <!-- Second heading -->
  <rect x="80" y="148" width="56" height="7" rx="3.5" fill="#22C55E" opacity="0.8"/>

  <!-- More text lines -->
  <rect x="80" y="170" width="88" height="5" rx="2.5" fill="#6B7280"/>
  <rect x="80" y="186" width="76" height="5" rx="2.5" fill="#6B7280"/>

  <!-- Preview eye icon badge -->
  <g transform="translate(160, 164)">
    <circle cx="28" cy="28" r="32" fill="#0A0A0A" stroke="#374151" stroke-width="2"/>
    <path d="M8 28C8 28 16 14 28 14C40 14 48 28 48 28C48 28 40 42 28 42C16 42 8 28 8 28Z" fill="none" stroke="#22C55E" stroke-width="3" stroke-linecap="round" stroke-linejoin="round"/>
    <circle cx="28" cy="28" r="7" fill="#22C55E"/>
    <circle cx="25" cy="25" r="2.5" fill="#FFFFFF" opacity="0.9"/>
  </g>
</svg>
