<svg xmlns="http://www.w3.org/2000/svg" viewBox="0 0 120 120" width="120" height="120">
  <rect width="120" height="120" fill="#FFFFFF" rx="12"/>

  <g transform="translate(18, 7)">
    <!-- Notepad body -->
    <rect x="8" y="6" width="68" height="98" rx="5" ry="5" fill="none" stroke="#000000" stroke-width="3"/>

    <!-- Spiral binding -->
    <rect x="0" y="16" width="16" height="4" rx="2" fill="#000000"/>
    <rect x="0" y="30" width="16" height="4" rx="2" fill="#000000"/>
    <rect x="0" y="44" width="16" height="4" rx="2" fill="#000000"/>
    <rect x="0" y="58" width="16" height="4" rx="2" fill="#000000"/>
    <rect x="0" y="72" width="16" height="4" rx="2" fill="#000000"/>
    <rect x="0" y="86" width="16" height="4" rx="2" fill="#000000"/>

    <!-- Text lines -->
    <rect x="22" y="22" width="42" height="3" rx="1.5" fill="#6B7280" opacity="0.4"/>
    <rect x="22" y="34" width="36" height="3" rx="1.5" fill="#6B7280" opacity="0.4"/>
    <rect x="22" y="46" width="40" height="3" rx="1.5" fill="#6B7280" opacity="0.4"/>

    <!-- Check -->
    <circle cx="48" cy="76" r="18" fill="#22C55E"/>
    <polyline points="38,76 45,84 60,68" fill="none" stroke="#FFFFFF" stroke-width="3.5" stroke-linecap="round" stroke-linejoin="round"/>
  </g>
</svg>
